<?xml version="1.0" standalone="no"?>
<!DOCTYPE svg PUBLIC "-//W3C//DTD SVG 1.1//EN" "http://www.w3.org/Graphics/SVG/1.1/DTD/svg11.dtd" >
<svg xmlns="http://www.w3.org/2000/svg">
<metadata></metadata>
<defs>
<font id="barthowheelregular" horiz-adv-x="883" >
<font-face units-per-em="2048" ascent="1638" descent="-410" />
<missing-glyph horiz-adv-x="477" />
<glyph horiz-adv-x="0" />
<glyph horiz-adv-x="682" />
<glyph unicode=" "  horiz-adv-x="477" />
<glyph unicode="&#x09;" horiz-adv-x="477" />
<glyph unicode="&#xa0;" horiz-adv-x="477" />
<glyph unicode="!" horiz-adv-x="599" d="M112 175q0 79 69 125q61 41 129 41q34 0 70 -10q97 -28 97 -129q0 -10 -1 -21q-11 -120 -169 -150q-32 -7 -59 -7q-105 0 -128 96q-8 29 -8 55zM173 477q20 392 20 843l224 5q-4 -213 -4 -388q0 -262 9 -439z" />
<glyph unicode="&#x22;" horiz-adv-x="742" d="M68 1288q0 44 39 82q45 43 109 43q16 0 33 -2q85 -14 108 -99q6 -23 6 -47q0 -66 -45 -138q-63 -99 -222 -143l-27 102q83 3 136 76q-102 11 -128 82q-9 23 -9 44zM397 1318q0 35 24 70q45 64 132 67h5q82 0 120 -77q18 -38 18 -82q0 -49 -22 -106q-43 -110 -191 -183 l-40 95q77 28 114 100q-11 -1 -22 -1q-85 0 -120 58q-18 29 -18 59z" />
<glyph unicode="#" horiz-adv-x="1130" d="M50 552l147 3l-5 337l-132 3l-5 177l135 5l-4 259l202 9l5 -261l334 12l4 239l177 5l7 -237l165 6l-9 -232l-149 2l9 -307l144 3l-5 -207l-133 -3l8 -250l-232 9l3 237l-310 -5l5 -236l-207 5l-4 227l-141 -2zM396 889l6 -329l317 7l5 316z" />
<glyph unicode="$" horiz-adv-x="971" d="M50 266l166 202q60 -127 134 -184q36 161 69 321q-79 50 -153 103q-126 90 -145 222q-6 39 -6 76q0 89 33 168q45 111 150 163q78 39 212 39q25 0 53 -2q17 105 33 209l172 -42q-23 -99 -44 -197q118 -48 197 -174l-124 -218q-57 86 -130 124q-36 -172 -68 -343l16 -8 q182 -96 230 -232q22 -63 22 -130q0 -77 -29 -158q-55 -153 -245 -186q-63 -11 -119 -13q-16 -107 -31 -214l-199 42l48 198q-11 3 -21 8q-132 55 -221 226zM356 984q0 -42 28 -85q23 -38 78 -80q29 145 55 290q-112 -2 -144 -62q-17 -31 -17 -63zM511 240q138 13 148 111 q1 7 1 13q0 85 -101 154z" />
<glyph unicode="%" horiz-adv-x="1534" d="M65 1121q0 20 1 41q16 247 316 249h5q294 0 308 -203q1 -17 1 -33q0 -180 -143 -258q-104 -58 -217 -58q-55 0 -112 14q-159 38 -159 248zM250 1137q6 -97 125 -97q13 0 28 2q141 11 141 103v6q-5 95 -146 95h-7q-141 -3 -141 -100v-9zM348 38q322 704 538 1381l209 -102 q-286 -612 -557 -1368zM789 303q0 15 1 32q16 232 260 288q56 13 104 13q161 0 235 -143q38 -75 38 -143q0 -102 -87 -190q-111 -112 -261 -112q-45 0 -94 10q-196 41 -196 245zM966 357q0 -9 2 -18q12 -111 134 -111q12 0 25 2q139 11 139 120v10q-7 109 -138 109h-21 q-141 -9 -141 -112z" />
<glyph unicode="&#x26;" horiz-adv-x="1183" d="M69 345q0 31 4 65q23 188 288 344q-205 47 -243 178q-17 54 -17 109q0 76 31 151q53 130 243 203q91 35 219 35q138 0 319 -41l-37 -252q-192 47 -314 47q-69 0 -116 -15q-122 -40 -122 -152v-12q6 -107 308 -107q44 0 95 2l47 -204q-369 -57 -434 -220q-19 -47 -19 -85 q0 -92 116 -123q39 -11 76 -11q118 0 223 105l-159 17l14 173l542 -11v-228l-202 12q-115 -237 -393 -275q-75 -10 -136 -10q-171 0 -247 77q-86 86 -86 228z" />
<glyph unicode="'" horiz-adv-x="376" d="M48 1288q0 44 39 82q45 43 109 43q16 0 33 -2q85 -14 108 -99q6 -23 6 -47q0 -66 -45 -138q-63 -99 -222 -143l-27 102q83 3 136 76q-102 11 -128 82q-9 23 -9 44z" />
<glyph unicode="(" horiz-adv-x="688" d="M60 613q0 13 1 26q10 519 382 871l195 -97q-325 -299 -334 -757v-27q0 -440 296 -699l-129 -129q-411 310 -411 812z" />
<glyph unicode=")" horiz-adv-x="688" d="M50 -102q325 299 334 758v26q0 440 -296 699l129 129q411 -310 411 -812v-25q-11 -520 -383 -872z" />
<glyph unicode="*" horiz-adv-x="739" d="M50 1192l52 144l202 -55l-16 217l160 5l4 -218l227 42l10 -139l-199 -47l152 -116l-111 -130l-153 158l-112 -185l-125 51l119 216z" />
<glyph unicode="+" horiz-adv-x="1042" d="M50 626l5 208l347 10l-4 404l237 -5q-10 -199 -14 -389l371 14l-5 -251h-380l-19 -376l-190 -9l-5 394h-343z" />
<glyph unicode="," horiz-adv-x="430" d="M68 178q0 44 39 82q45 43 109 43q16 0 33 -2q85 -14 108 -99q6 -23 6 -47q0 -66 -45 -138q-63 -99 -222 -143l-27 92q83 23 136 86q-102 11 -128 82q-9 23 -9 44z" />
<glyph unicode="-" horiz-adv-x="708" d="M50 835q227 9 608 28l-10 -239q-236 7 -593 16z" />
<glyph unicode="." horiz-adv-x="477" d="M72 186q0 68 69 114q58 39 118 39q35 0 71 -13q80 -30 80 -119q0 -19 -4 -41q-21 -125 -159 -125l-1 -1q-137 0 -166 100q-8 24 -8 46z" />
<glyph unicode="/" horiz-adv-x="562" d="M-10 -128q210 770 387 1680l204 -50q-237 -870 -366 -1689z" />
<glyph unicode="0" horiz-adv-x="1025" d="M51 654q0 46 4 96q25 298 187 458q117 115 257 115q54 0 112 -17q206 -62 294 -286q56 -144 56 -294q0 -84 -17 -170q-50 -240 -199 -343q-140 -97 -287 -97q-10 0 -21 1q-158 7 -282 171q-104 137 -104 366zM289 708q0 -108 28 -172q40 -93 122 -138q45 -25 88 -25 q36 0 72 18q77 37 111 140q18 55 18 136q0 70 -13 159q-29 192 -140 252q-49 27 -92 27q-53 0 -95 -42q-77 -75 -94 -255q-5 -54 -5 -100z" />
<glyph unicode="1" horiz-adv-x="710" d="M80 1101l289 294l261 -33q-29 -519 -29 -958q0 -198 6 -380l-223 4q12 358 12 714q0 188 -3 375l-256 -177z" />
<glyph unicode="2" horiz-adv-x="898" d="M50 1321q282 134 450 134q69 0 119 -22q171 -79 176 -268v-4q0 -192 -513 -787q75 -5 161 -5q178 0 405 20l-10 -245q-63 3 -137 3q-249 0 -622 -36l-15 254q513 589 513 770q0 36 -20 56q-46 43 -118 43q-125 0 -332 -131z" />
<glyph unicode="3" horiz-adv-x="872" d="M50 -28l52 232q72 -40 230 -40q26 0 54 2q200 7 222 148q1 7 1 13q0 128 -385 143l5 199q209 91 316 198q102 101 102 163v6q-5 62 -147 70q-12 1 -25 1q-140 0 -389 -82l-33 280q212 34 355 34h39q151 -6 272.5 -71t125.5 -234v-4q0 -169 -365 -427q332 -41 344 -248 q1 -11 1 -21q0 -193 -209 -320q-131 -79 -306 -79q-120 0 -260 37z" />
<glyph unicode="4" horiz-adv-x="922" d="M50 545q125 458 206 819l214 5q-123 -391 -196 -768l362 28l-10 508l246 9q-10 -390 -10 -812q0 -151 1 -306l-202 -9l-5 376q-415 -10 -600 -24z" />
<glyph unicode="5" horiz-adv-x="931" d="M50 138l60 216q107 -55 199 -55q91 0 168 54q151 107 151 227v5q-3 122 -123 138q-15 2 -32 2q-110 0 -261 -95l-111 42q30 345 30 603q0 68 -2 130q423 0 724 18v-287q-320 14 -524 14l-19 -297q75 69 186 69q61 0 132 -21q202 -58 228 -242q3 -26 3 -52 q0 -157 -130 -304q-153 -172 -348 -210q-62 -12 -117 -12q-121 0 -214 57z" />
<glyph unicode="6" horiz-adv-x="906" d="M72 555q0 180 59 364q80 252 261 354q115 65 268 65q85 0 182 -20l-28 -299q-120 29 -205 29q-66 0 -110 -17q-102 -40 -167 -144.5t-78 -230.5q128 120 278 120q54 0 111 -15q213 -60 213 -344v-1q-1 -286 -228 -370q-100 -38 -184 -38q-107 0 -188 61 q-146 108 -176 353q-8 66 -8 133zM281 480q2 -253 140 -255q3 -1 6 -1q133 0 161 105q10 37 10 71q0 60 -33 104q-41 55 -107 55q-18 0 -36 -4q-92 -18 -141 -75z" />
<glyph unicode="7" horiz-adv-x="859" d="M50 1166l10 264q185 -20 554 -20q77 0 162 1l33 -200q-294 -479 -381 -1111l-225 48q118 597 401 1040z" />
<glyph unicode="8" horiz-adv-x="984" d="M57 357v21q7 182 263 334q-190 62 -225 188q-10 32 -10 65q0 97 76 202q102 142 250 192q64 22 137 22q92 0 198 -36q183 -62 183 -268v-11q-5 -216 -252 -316q256 -66 257 -261v-1q0 -194 -154 -324q-155 -130 -328 -142q-21 -2 -41 -2q-147 0 -247 82q-107 88 -107 255 zM284 365q0 -122 83 -154q34 -14 65 -14q51 0 98 34q76 55 83 179q1 10 1 19q0 108 -77 149q-37 18 -73 18q-47 0 -93 -32q-83 -57 -87 -188v-11zM340 972q0 -80 78 -127q37 -23 77 -23q48 0 101 33q96 60 103 159v12q0 89 -96 116q-37 10 -71 10q-60 0 -110 -34 q-78 -52 -82 -138v-8z" />
<glyph unicode="9" horiz-adv-x="1000" d="M112 920q0 139 91 277q93 141 348 141q165 0 399 -59q-46 -889 -51 -1288l-267 -34q49 280 56 598q-87 -12 -161 -12q-289 0 -372 187q-43 95 -43 190zM350 957q0 -95 80 -135q52 -27 125 -27q79 0 182 32q10 87 10 159t-10 128q-115 29 -196 29q-152 0 -179 -104 q-12 -45 -12 -82z" />
<glyph unicode=":" horiz-adv-x="477" d="M72 186q0 68 69 114q58 39 118 39q35 0 71 -13q80 -30 80 -119q0 -19 -4 -41q-21 -125 -159 -125l-1 -1q-137 0 -166 100q-8 24 -8 46zM79 988q0 46 37 92q53 65 143 65q22 0 46 -3q106 -17 106 -111q0 -14 -3 -30q-19 -122 -138 -144q-25 -5 -47 -5q-83 0 -122 65 q-22 36 -22 71z" />
<glyph unicode=";" horiz-adv-x="477" d="M79 988q0 46 37 92q53 65 143 65q22 0 46 -3q106 -17 106 -111q0 -14 -3 -30q-19 -122 -138 -144q-25 -5 -47 -5q-83 0 -122 65q-22 36 -22 71zM98 178q0 44 39 82q45 43 109 43q16 0 33 -2q85 -14 108 -99q6 -23 6 -47q0 -66 -45 -138q-63 -99 -222 -143l-27 92 q83 23 136 86q-102 11 -128 82q-9 23 -9 44z" />
<glyph unicode="&#x3c;" horiz-adv-x="1000" d="M50 636v195q468 255 784 440l116 -162l-664 -348l645 -251l-93 -194q-533 236 -788 320z" />
<glyph unicode="=" horiz-adv-x="808" d="M50 635q227 -1 708 -2l-10 -209q-336 7 -693 16zM50 826l10 209q336 -7 693 -16l5 -195q-227 1 -708 2z" />
<glyph unicode="&#x3e;" horiz-adv-x="1000" d="M50 1109l116 162q316 -185 784 -400v-145q-335 -174 -788 -410l-93 194l585 271z" />
<glyph unicode="?" horiz-adv-x="873" d="M50 1329q232 148 422 148q61 0 118 -15q231 -63 231 -254v-3q-2 -193 -154 -366q-147 -167 -147 -308v-9l-190 -14q14 219 147 393t145 267v12q0 76 -127 76h-12q-150 -4 -371 -188zM255 239q0 73 69 115q59 36 125 36q36 0 74 -10q97 -28 97 -129q0 -10 -1 -21 q-11 -120 -169 -135q-20 -2 -37 -2q-125 0 -150 96q-8 26 -8 50z" />
<glyph unicode="@" horiz-adv-x="1782" d="M109 503q0 173 48 353q107 401 388 494q169 56 375 56q133 0 282 -23q376 -61 453 -354q49 -188 49 -390q0 -115 -15 -233q-44 -330 -319 -354q-29 -2 -54 -2q-223 0 -236 187q-43 -19 -121 -19q-89 0 -224 26q-253 48 -270 309q-1 21 -1 42q0 229 171 352q88 64 237 64 q163 0 398 -77l14 -660q35 -9 64 -9q96 0 118 95q16 68 16 185q0 95 -10 222q-24 284 -152 365.5t-375 82.5h-5q-243 0 -395 -100q-154 -102 -210 -372q-23 -106 -23 -209q0 -158 53 -307q73 -207 494 -207q83 0 178 8l6 -202q-164 -24 -298 -24q-462 0 -563 285 q-73 203 -73 416zM684 598q0 -144 259 -144q69 0 156 10l-1 302q-93 17 -166 17q-224 0 -246 -160q-2 -13 -2 -25z" />
<glyph unicode="A" horiz-adv-x="955" d="M-6 57q153 518 343 1290l326 17q95 -447 285 -1273l-304 -102l-71 633l-253 -26l-86 -624zM378 799l232 17l-40 305l-126 7z" />
<glyph unicode="B" horiz-adv-x="886" d="M50 1373q97 31 249 44q42 3 87 3q118 0 255 -23q189 -33 212 -124q7 -27 7 -59q0 -76 -39 -179q-55 -147 -285 -306q173 -31 238 -85q44 -37 44 -141q0 -48 -9 -110q-30 -197 -179 -314q-140 -111 -441 -111q-21 0 -42 1q-48 707 -97 1404zM257 1197l52 -415 q130 46 226 149t110 169q1 7 1 13q0 55 -108 75q-78 13 -171 13q-53 0 -110 -4zM286 518l36 -313q185 47 248 128q50 63 50 102q0 10 -3 19q-17 40 -116 57q-62 11 -131 11q-41 0 -84 -4z" />
<glyph unicode="C" horiz-adv-x="779" d="M64 566q0 29 2 61q15 332 199 527q134 143 305 143q62 0 128 -19l10 -275q-56 16 -106 16q-100 0 -182 -60q-123 -91 -157 -310q-9 -57 -9 -105q0 -137 73 -199q52 -45 162 -45q97 0 240 35l-20 -270q-100 -15 -183 -15q-219 0 -327 103q-135 128 -135 413z" />
<glyph unicode="D" horiz-adv-x="900" d="M50 1342q92 10 176 10q198 0 350 -56q216 -81 267 -416q12 -78 12 -152q0 -242 -129 -435q-169 -252 -662 -252q3 128 3 287q0 406 -17 1014zM277 277q209 4 324 164q80 111 80 259q0 64 -15 136q-50 236 -361 254q-19 -297 -28 -813z" />
<glyph unicode="E" horiz-adv-x="754" d="M50 73q37 586 50 1226q181 17 604 47l-9 -219q-55 1 -106 1q-202 0 -324 -16v-309l406 4l-9 -223h-343l4 -258l356 4l4 -283z" />
<glyph unicode="F" horiz-adv-x="668" d="M50 119q25 480 29 1209l539 21l-4 -211q-163 17 -378 21v-293l374 10l4 -223l-337 -12l-12 -500z" />
<glyph unicode="G" horiz-adv-x="921" d="M73 613q0 124 31 272q54 255 258 384q148 93 336 93q70 0 146 -13l-22 -287q-93 20 -170 20q-158 0 -249 -84q-135 -126 -139 -333q-1 -14 -1 -27q0 -186 59 -275q52 -80 144 -80q18 0 38 4q108 16 108 218q0 21 -1 43l-129 -5l-9 185l387 14q1 -26 1 -51 q0 -501 -212 -581q-94 -36 -175 -36q-111 0 -196 67q-149 116 -188 302q-17 79 -17 170z" />
<glyph unicode="H" horiz-adv-x="930" d="M50 1416l240 13l16 -587l343 21l-8 472l239 17q-7 -420 -7 -784q0 -242 3 -460l-255 -25l-5 552l-311 -26v-441l-230 -26q0 557 -25 1274z" />
<glyph unicode="I" horiz-adv-x="594" d="M180 1351l249 21q-20 -692 -20 -1303l-224 -5q4 277 4 538q0 392 -9 749z" />
<glyph unicode="J" horiz-adv-x="864" d="M50 283l193 162q72 -188 195 -188h5q146 29 146 257q0 14 -1 30l-18 808l244 19l-18 -832q-10 -530 -358 -543h-2q-288 0 -386 287z" />
<glyph unicode="K" horiz-adv-x="1035" d="M50 1405l234 5q-2 -85 -2 -177q0 -185 7 -402q239 264 444 625l294 -76q-250 -280 -540 -595q219 -239 519 -539l-178 -269q-183 274 -478 640l-26 -40l16 -575l-270 11q3 151 3 314q0 487 -23 1078z" />
<glyph unicode="L" horiz-adv-x="824" d="M50 1316l257 19q-38 -635 -39 -1023q279 11 506 45l-7 -305q-190 11 -352 11q-192 0 -346 -15q1 184 1 347q0 605 -20 921z" />
<glyph unicode="M" horiz-adv-x="1009" d="M50 129q5 345 5 652t-5 576l345 8q49 -376 112 -653q116 394 179 645l273 -27q-33 -593 -33 -1051q0 -103 2 -199h-237q31 497 31 900l-179 -519l-157 9l-121 609q0 -591 13 -950h-228z" />
<glyph unicode="N" horiz-adv-x="1039" d="M50 38q36 615 36 1070q0 103 -2 198l276 14q193 -547 343 -856q15 556 15 929l290 19q-68 -740 -92 -1316l-242 -24q-184 455 -353 861q-39 -498 -39 -919z" />
<glyph unicode="O" horiz-adv-x="1025" d="M51 654q0 46 4 96q25 298 187 458q117 115 257 115q54 0 112 -17q206 -62 294 -286q56 -144 56 -294q0 -84 -17 -170q-50 -240 -199 -343q-140 -97 -287 -97q-10 0 -21 1q-158 7 -282 171q-104 137 -104 366zM289 708q0 -108 28 -172q40 -93 122 -138q45 -25 88 -25 q36 0 72 18q77 37 111 140q18 55 18 136q0 70 -13 159q-29 192 -140 252q-49 27 -92 27q-53 0 -95 -42q-77 -75 -94 -255q-5 -54 -5 -100z" />
<glyph unicode="P" horiz-adv-x="900" d="M50 82q26 395 26 847q0 238 -7 491q130 9 234 9q201 0 308 -34q162 -52 221 -198q21 -52 21 -106q0 -98 -70 -202q-108 -162 -499 -252l-7 -538zM238 1199l1 -326q228 7 311 93q60 63 60 120q0 20 -7 40q-30 73 -119 87q-30 5 -67 5q-75 0 -179 -19z" />
<glyph unicode="Q" horiz-adv-x="1047" d="M51 709q0 287 160 453q129 135 297 135q40 0 84 -8q219 -41 312 -237q76 -162 76 -350q0 -41 -3 -84q-21 -237 -151 -374l-13 -13q57 -94 124 -197l-165 -124q-56 117 -110 224q-54 -17 -112 -17q-14 0 -27 1q-174 12 -322 154t-149 432q-1 3 -1 5zM287 711 q0 -89 24 -170q38 -136 142 -197q53 -31 101 -31h13q-73 134 -145 249l169 104q45 -113 116 -247q31 54 50 133q20 83 20 169q0 70 -14 141q-30 158 -134 224l-93 29q-57 0 -112 -46q-101 -82 -126 -237q-11 -62 -11 -121z" />
<glyph unicode="R" horiz-adv-x="891" d="M50 1400q42 1 80 1q317 0 457 -51q157 -57 209 -151q36 -67 36 -162q0 -38 -5 -79q-21 -148 -360 -321q153 -173 417 -457l-218 -185q-159 253 -401 562l33 -488l-227 -17q0 572 -21 1348zM265 755q293 135 341 236q23 49 23 86q0 39 -25 64q-50 48 -134 52q-29 1 -60 1 q-64 0 -141 -5z" />
<glyph unicode="S" horiz-adv-x="849" d="M-24 266l166 202q109 -229 263 -229h10q160 7 170 112q1 7 1 13q0 97 -129 173q-139 82 -265 171.5t-145 221.5q-6 39 -6 76q0 89 33 168q45 111 150 163q78 39 212 39q44 0 94 -4q202 -17 317 -202l-124 -218q-96 146 -241 156q-18 1 -34 1q-116 0 -149 -62 q-17 -31 -17 -63q0 -42 28 -85q49 -78 231 -174t230 -232q22 -63 22 -130q0 -77 -29 -158q-55 -153 -245 -186q-73 -13 -136 -13q-105 0 -186 34q-132 55 -221 226z" />
<glyph unicode="T" horiz-adv-x="938" d="M50 1005l14 238l809 97l15 -251l-355 -28l-4 -971l-217 -42l15 1012z" />
<glyph unicode="U" horiz-adv-x="904" d="M50 1347l256 5q-10 -444 -10 -683q0 -73 1 -127q4 -224 160 -224h7q165 23 175 227q3 72 3 183q0 197 -11 515l206 14q7 -191 7 -362q0 -246 -14 -449q-25 -345 -376 -378q-366 0 -382.5 376.5t-21.5 902.5z" />
<glyph unicode="V" horiz-adv-x="1007" d="M4 1299l271 70q63 -474 213 -1128q128 520 239 1081l295 -79q-217 -556 -413 -1254l-273 27q-154 508 -332 1283z" />
<glyph unicode="W" horiz-adv-x="1513" d="M-1 1344l225 65l211 -1013l112 1054l322 23l188 -1025q105 721 181 983l279 -26q-218 -745 -330 -1348l-270 -7l-215 1034l-153 -1064l-241 -33q-170 836 -309 1357z" />
<glyph unicode="X" horiz-adv-x="1136" d="M50 218q195 309 345 546q-123 285 -329 579l250 115q155 -395 236 -570q176 280 266 455l268 -109q-252 -323 -376 -470q193 -370 307 -560l-175 -104q-162 275 -304 493q-143 -289 -242 -479z" />
<glyph unicode="Y" horiz-adv-x="947" d="M-10 1256l252 108q99 -378 240 -640q159 323 272 640l203 -81q-385 -777 -534 -1251l-258 48q100 229 169 417q-144 339 -344 759z" />
<glyph unicode="Z" horiz-adv-x="889" d="M50 406q243 334 502 750q-256 -14 -464 -41l5 289q174 -20 552 -20q78 0 166 1l28 -190q-398 -532 -563 -795q269 19 559 38l4 -290q-207 13 -424 13q-172 0 -351 -8z" />
<glyph unicode="[" horiz-adv-x="620" d="M50 -211q5 793 9 1721l511 -9v-196l-279 -6q-37 -636 -37 -1181v-106l311 4l-9 -199z" />
<glyph unicode="\" horiz-adv-x="566" d="M-15 1502l204 50q177 -910 387 -1680l-225 -59q-129 819 -366 1689z" />
<glyph unicode="]" horiz-adv-x="620" d="M50 1315v196l511 9q4 -938 9 -1691l-506 -32l-9 219l311 16v102q0 530 -37 1175z" />
<glyph unicode="^" horiz-adv-x="1026" d="M50 840q190 311 334 678l297 3q125 -393 295 -710l-184 -89q-65 154 -269 597q-147 -265 -278 -560z" />
<glyph unicode="_" horiz-adv-x="1000" d="M50 -200h900v-150h-900v150z" />
<glyph unicode="`" horiz-adv-x="420" d="M50 1422l135 125l185 -268l-135 -82z" />
<glyph unicode="a" horiz-adv-x="908" d="M59 313q0 7 1 14q9 144 127 232q101 74 346 74q42 0 88 -2q1 16 1 31q0 164 -92 184q-13 3 -28 3q-107 0 -343 -131l-81 191q280 121 433 121q20 0 38 -2q154 -18 232 -156q54 -97 54 -425q0 -139 -10 -321q-236 -59 -396 -59q-123 0 -201 36q-169 76 -169 210zM281 346 q0 -37 32 -70q32 -34 123 -34q75 0 191 23l1 218h-27q-252 0 -298 -71q-22 -35 -22 -66z" />
<glyph unicode="b" horiz-adv-x="897" d="M50 1400l249 -10q-10 -158 -10 -348q0 -67 1 -139q48 3 92 3q414 0 438 -297q4 -44 4 -84q0 -264 -154 -381q-152 -117 -493 -117q-55 0 -115 3q2 234 2 446q0 530 -14 924zM251 265q343 22 357 243q1 8 1 16q0 170 -243 170q-48 0 -106 -7z" />
<glyph unicode="c" horiz-adv-x="761" d="M61 485q0 20 1 41q12 209 136 351q94 106 324 106q75 0 164 -11l33 -239q-145 28 -238 28q-90 0 -131 -26q-83 -55 -101 -195q-3 -24 -3 -45q0 -105 74 -149q47 -29 164 -29q104 0 262 22l-18 -239q-113 -10 -205 -10q-282 0 -364 97q-98 116 -98 298z" />
<glyph unicode="d" horiz-adv-x="963" d="M101 478q0 102 55 215q105 217 524 217v50q0 224 -8 449l241 -4q-29 -319 -29 -1097q0 -118 1 -247q-114 -12 -211 -12q-141 0 -247 25q-179 42 -278 222q-48 86 -48 182zM298 465q0 -51 27 -101q49 -89 273 -89q42 0 91 3l-9 406h-24q-262 0 -324 -104q-34 -58 -34 -115 z" />
<glyph unicode="e" horiz-adv-x="895" d="M75 477q0 46 8 97q32 211 216 331q108 71 223 71q80 0 164 -34q155 -64 155 -316q0 -80 -16 -180l-548 -9q-11 -25 -11 -46q0 -43 44 -67q37 -20 184 -20q114 0 295 12l-37 -219q-77 -4 -144 -4q-365 0 -453 123q-80 111 -80 261zM315 606l318 -5v15q0 196 -109 196 q-17 0 -37 -4q-151 -37 -172 -202z" />
<glyph unicode="f" horiz-adv-x="784" d="M50 716l5 213l165 14q-1 19 -1 38q0 420 485 420h30v-213q-24 2 -45 2q-255 0 -264 -247l291 -1l5 -247l-282 7q-8 -212 -8 -404q0 -138 4 -266h-215l4 680z" />
<glyph unicode="g" horiz-adv-x="915" d="M56 596q0 33 8 70q73 345 781 345h20q-5 -412 -11.5 -800t-83.5 -468q-64 -68 -181 -68q-23 0 -48 3q-152 16 -444 220l83 199q239 -208 344 -208q12 0 22 2q87 22 87 256q0 35 -2 75q-575 83 -575 374zM287 654q0 -12 2 -24q30 -169 346 -178l-12 372 q-336 -24 -336 -170z" />
<glyph unicode="h" d="M50 1347l229 -13q-15 -276 -15 -439q0 -69 3 -118q87 146 193 167q19 4 39 4q87 0 182 -76q116 -93 127 -309.5t25 -490.5l-254 -9q26 189 26 379v39q-3 209 -120 227q-13 2 -25 2q-100 0 -168 -133q-7 -86 -7 -232q0 -145 7 -349h-219v129q0 563 -23 1222z" />
<glyph unicode="i" horiz-adv-x="599" d="M110 1147q0 10 1 22q11 119 169 150q32 6 59 6q105 0 129 -95q7 -30 7 -56q0 -79 -69 -125q-61 -41 -129 -41q-34 0 -69 11q-98 27 -98 128zM165 851l249 21q-20 -392 -20 -843l-224 -5q4 213 4 388q0 262 -9 439z" />
<glyph unicode="j" horiz-adv-x="609" d="M-119 -264l56 232q139 -105 201 -105q20 0 32 10q43 36 43 269q0 46 -2 99q-10 325 -33 603l260 33q-24 -418 -25 -754.5t-130 -447.5q-51 -44 -123 -44q-113 0 -279 105zM142 1174q0 67 74 112q69 42 132 42q32 0 63 -11q81 -29 81 -128q0 -12 -1 -24 q-11 -120 -152 -139q-22 -3 -41 -3q-107 0 -143 92q-13 31 -13 59z" />
<glyph unicode="k" horiz-adv-x="925" d="M50 1341h259q-17 -237 -17 -498q0 -102 3 -207q143 111 432 320l116 -227q-189 -69 -405 -233q132 -116 437 -306l-171 -181q-149 139 -421 354l14 -368l-220 -14q0 571 -27 1360z" />
<glyph unicode="l" horiz-adv-x="594" d="M170 1368l258 9q-29 -709 -37 -1348h-199q-12 574 -22 1339z" />
<glyph unicode="m" horiz-adv-x="1381" d="M50 937l156 32l27 -199q104 204 260 204t244 -168q159 159 293 159h9q137 -5 215 -151q55 -105 55 -441q0 -130 -8 -294l-225 -20q15 193 15 330q0 308 -75 341q-27 11 -52 11q-82 0 -157 -117l-2 -568l-226 -10l19 525q2 16 2 31q0 99 -111 129q-26 7 -50 7 q-90 0 -138 -107q-4 -113 -4 -255q0 -141 4 -311l-232 -14q6 181 6 340q0 317 -25 546z" />
<glyph unicode="n" d="M50 947l168 23l-1 -193q107 146 228 167q22 4 44 4q97 0 192 -76q116 -93 132 -359.5t20 -540.5l-254 -9q9 209 16 468v29q0 232 -110 258q-21 5 -41 5q-90 0 -152 -106q-7 -106 -7 -247q0 -140 7 -314h-219q8 185 8 346q0 322 -31 545z" />
<glyph unicode="o" horiz-adv-x="997" d="M86 478q0 157 81 308q116 218 414 223h7q290 0 325 -335q5 -59 5 -112q0 -254 -136 -379q-132 -121 -307 -121q-44 0 -90 8q-232 37 -283 268q-16 70 -16 140zM288 441q0 -92 56 -138q51 -44 127 -44q48 0 106 17q139 41 139 233q0 15 -1 30q-10 200 -162 200 q-14 0 -28 -1q-180 -20 -222 -192q-15 -59 -15 -105z" />
<glyph unicode="p" horiz-adv-x="882" d="M50 -369q24 324 24 734q0 287 -12 616q176 19 309 19q231 0 334 -57q132 -74 132 -276q0 -47 -7 -99q-37 -285 -540 -350q-1 -95 -1 -180q0 -239 10 -397zM250 434q20 -1 39 -1q320 0 320 185q0 7 -1 15q-11 172 -235 172q-50 0 -112 -9z" />
<glyph unicode="q" horiz-adv-x="885" d="M48 611q0 203 132 302q113 84 382 84q116 0 261 -16q-7 -300 -7 -560q0 -434 19 -760l-249 -40q10 217 10 439q0 79 -1 158q-503 15 -540 295q-7 51 -7 98zM267 634q0 -172 297 -172q33 0 71 2l-11 332q-57 6 -105 6q-249 0 -252 -164v-4z" />
<glyph unicode="r" horiz-adv-x="773" d="M50 891l169 69l15 -209q75 152 206 185q52 12 107 12q84 0 176 -29l-51 -232q-83 22 -148 22q-144 0 -203 -106q-9 -138 -9 -334q0 -118 3 -256l-215 -4q1 96 1 183q0 520 -51 699z" />
<glyph unicode="s" horiz-adv-x="818" d="M50 217l94 207q136 -141 240 -149q12 -2 24 -2q83 0 108 54q3 6 3 14q0 57 -197 142q-223 96 -227 237v8q0 135 125 215q89 58 203 58q51 0 107 -11q181 -37 238 -185l-152 -145q-79 135 -170 146q-20 2 -37 2q-62 0 -90 -31q-19 -21 -19 -44q0 -22 16 -45 q33 -50 220.5 -128.5t195.5 -204.5v-15q0 -116 -115 -193q-101 -68 -241 -68q-30 0 -61 4q-180 17 -265 134z" />
<glyph unicode="t" horiz-adv-x="795" d="M50 727v214q108 -10 252 -23l-14 250l228 9l-10 -250q144 4 239 12v-223q-95 23 -248 27q0 -375 -8 -714h-179q-16 194 -16 468q0 112 3 237q-139 0 -247 -7z" />
<glyph unicode="u" d="M50 961l254 9q-9 -309 -16 -518v-26q0 -184 96 -205q16 -4 33 -4q87 0 174 99q13 122 13 262t-13 299h219q-3 -142 -3 -272q0 -358 26 -619l-168 -23l-19 183q-134 -140 -251 -159q-20 -3 -39 -3q-94 0 -174 77q-96 93 -112 309.5t-20 590.5z" />
<glyph unicode="v" horiz-adv-x="877" d="M-15 953l228 58q84 -327 202 -737l203 716l265 -46q-198 -367 -328 -882l-279 -23q-75 334 -291 914z" />
<glyph unicode="w" horiz-adv-x="1119" d="M-10 993l214 32l74 -751l139 700l195 5l139 -673q112 432 135 664l237 -47q-116 -338 -236 -833l-252 -23q-78 434 -130 634q-69 -330 -102 -622l-290 -33q-44 548 -123 947z" />
<glyph unicode="x" horiz-adv-x="1019" d="M50 1042l232 93q61 -195 214 -446q116 195 246 441l227 -107q-125 -130 -306 -430q116 -201 301 -377l-199 -167l-276 401l-258 -392l-176 107q88 102 292 413q-102 172 -297 464z" />
<glyph unicode="y" horiz-adv-x="921" d="M50 1025l236 10q-13 -252 -13 -397q0 -105 7 -154q16 -120 95 -131q7 -2 16 -2q80 0 243 94q-4 376 -18 566l255 19q-33 -650 -33 -970t-230 -361q-45 -9 -91 -9q-190 0 -398 139l65 238q198 -140 323 -140q11 0 22 1q109 12 109 236q0 42 -4 91q-169 -113 -289 -113 q-38 0 -71 12q-138 46 -181 230t-43 641z" />
<glyph unicode="z" horiz-adv-x="876" d="M50 336q283 227 488 496q-195 0 -438 4v237q313 -23 698 -23l4 -222l-466 -485q158 -8 338 -8q65 0 133 1l19 -223q-219 12 -481 12q-137 0 -286 -3z" />
<glyph unicode="{" horiz-adv-x="915" d="M50 569v204q20 -2 39 -2q280 0 293 343q22 413 462 413h21l-5 -215q-27 4 -51 4q-178 0 -218 -207q-5 -364 -216 -446q183 -35 183 -385v-37q19 -209 288 -213l5 -223q-19 -1 -38 -1q-459 0 -459 424v9q1 20 1 38q0 296 -266 296q-19 0 -39 -2z" />
<glyph unicode="|" horiz-adv-x="594" d="M180 1527l221 18q-8 -372 -8 -728q0 -525 17 -1017l-207 -27q2 198 2 399q0 664 -25 1355z" />
<glyph unicode="}" horiz-adv-x="915" d="M50 1527h21q440 0 462 -413q13 -343 293 -343q19 0 39 2v-204q-20 2 -39 2q-266 0 -266 -296q0 -18 1 -38v-9q0 -424 -459 -424q-19 0 -38 1l5 223q269 4 288 213v37q0 350 183 385q-211 82 -216 446q-40 207 -218 207q-24 0 -51 -4z" />
<glyph unicode="~" horiz-adv-x="797" d="M30 544q56 261 252 261q38 0 83 -10q80 -19 139 -19q139 0 164 100l104 -27q-40 -243 -251 -243q-35 0 -75 7q-68 11 -122 11q-168 0 -202 -112z" />
<glyph unicode="&#xa1;" horiz-adv-x="599" d="M100 957q0 10 1 21q11 120 169 150q32 7 59 7q105 0 128 -96q8 -29 8 -55q0 -79 -69 -125q-61 -41 -129 -41q-34 0 -70 10q-97 28 -97 129zM155 661l249 21q-20 -392 -20 -843l-224 -5q4 213 4 388q0 262 -9 439z" />
<glyph unicode="&#xa2;" horiz-adv-x="796" d="M57 663v21q0 164 102 332q74 121 310 150q31 150 62 305l172 -42q-35 -128 -67 -254q44 0 92 -2l18 -239q-92 12 -165 15q-53 -224 -97 -444q93 7 235 35l-33 -239q-103 -13 -187 -13q-30 0 -57 2q-26 -144 -48 -286l-190 50q36 132 71 268q-49 19 -82 50 q-129 116 -136 291zM242 706q0 -16 2 -32q11 -115 80 -152l96 417q-68 -14 -100 -46q-78 -78 -78 -187z" />
<glyph unicode="&#xa3;" horiz-adv-x="1030" d="M73 807l191 4q4 436 214 553q120 67 270 67q111 0 237 -36l-70 -263q-105 37 -195 37q-61 0 -114 -16q-128 -40 -128 -298v-27l375 16l-3 -203l-381 -5l9 -346q205 13 496 17l12 -235q-153 5 -287 5q-394 0 -620 -44l-1 223l186 17l-5 354l-185 -13z" />
<glyph unicode="&#xa5;" horiz-adv-x="1036" d="M50 1417l273 11q55 -297 167 -573q99 207 222 558l274 -37q-173 -248 -330 -603q89 -2 181 -4l5 -145h-250q-6 -16 -13 -33q0 -50 1 -108h262l-10 -159q-123 2 -248 5q5 -133 14 -297h-223q14 125 16 301q-125 4 -252 7l-5 145l258 -2q-1 61 -3 126l-5 16q-115 0 -250 1 l10 159q93 -2 187 -4q-108 300 -281 636z" />
<glyph unicode="&#xa6;" horiz-adv-x="594" d="M180 1545l221 -18q-13 -365 -20 -722l-193 -8q0 366 -8 748zM203 -227q3 195 3 393q0 197 -3 397l191 6q4 -394 16 -769z" />
<glyph unicode="&#xa8;" horiz-adv-x="779" d="M57 1278q0 7 1 15q7 81 115 102q22 4 41 4q71 0 87 -64q5 -20 5 -38q0 -54 -47 -86q-41 -28 -88 -28q-23 0 -47 7q-67 19 -67 88zM472 1282q0 17 6 37q23 79 133 79t114 -84v-9q0 -77 -64 -104q-32 -13 -64 -13q-37 0 -73 18q-52 25 -52 76z" />
<glyph unicode="&#xa9;" horiz-adv-x="1475" d="M100 850q0 264 187 451t451 187t450.5 -187t186.5 -451t-186.5 -450.5t-450.5 -186.5t-451 186.5t-187 450.5zM250 850q0 -202 143 -344.5t345 -142.5q201 0 344 142.5t143 344.5t-143 345t-344 143q-202 0 -345 -143t-143 -345zM400 850q0 140 99 239t239 99 q139 0 238 -99q72 -72 92 -165h-157q-14 32 -41 59q-54 55 -132 55t-133 -55t-55 -133t55 -132.5t133 -54.5t132 54q30 30 43 65h155q-18 -97 -92 -170q-99 -99 -238 -99q-140 0 -239 99t-99 238z" />
<glyph unicode="&#xab;" horiz-adv-x="1338" d="M80 766q257 295 498 579l182 -93q-201 -228 -376 -482q133 -218 361 -484l-187 -98q-238 254 -478 578zM578 766q257 295 498 579l182 -93q-201 -228 -376 -482q133 -218 361 -484l-187 -98q-238 254 -478 578z" />
<glyph unicode="&#xac;" horiz-adv-x="1042" d="M46 835q372 0 928 23q-1 -56 -1 -114q0 -203 11 -438l-218 -14q4 112 4 339q-100 3 -200 3q-256 0 -510 -17z" />
<glyph unicode="&#xad;" horiz-adv-x="708" d="M50 835q227 9 608 28l-10 -239q-236 7 -593 16z" />
<glyph unicode="&#xae;" horiz-adv-x="1050" d="M100 1275q0 176 124.5 300.5t300.5 124.5t300.5 -124.5t124.5 -300.5t-124.5 -300.5t-300.5 -124.5t-300.5 124.5t-124.5 300.5zM200 1275q0 -134 95.5 -229.5t229.5 -95.5q135 0 230 95.5t95 229.5q0 135 -95 230t-230 95q-134 0 -229.5 -95t-95.5 -230zM325 1050v450 h250q150 0 150 -150q0 -125 -104 -146l104 -154h-115l-101 150h-84v-150h-100zM425 1300h150q50 0 50 50t-50 50h-150v-100z" />
<glyph unicode="&#xb0;" horiz-adv-x="628" d="M48 1109q0 91 42 181q66 142 253 142h6q191 -2 225 -204q8 -51 8 -95q0 -134 -76 -210q-87 -89 -212 -89q-19 0 -39 2q-151 16 -192 163q-15 55 -15 110zM197 1118q0 -83 56 -108q25 -12 50 -12q39 0 78 27q51 34 51 99q0 18 -4 39q-16 86 -102 86q-9 0 -18 -1 q-103 -10 -110 -110q-1 -11 -1 -20z" />
<glyph unicode="&#xb1;" horiz-adv-x="1042" d="M50 726l5 208l347 10l-4 404l237 -5q-10 -199 -14 -389l371 14l-5 -251h-380l-19 -376l-190 -9l-5 394h-343zM64 -19l13 238q214 -7 436 -7t452 7l10 -215q-475 0 -911 -23z" />
<glyph unicode="&#xb4;" horiz-adv-x="420" d="M50 1279l185 268l135 -125l-185 -225z" />
<glyph unicode="&#xb5;" d="M17 -380q38 407 38 1190v153l256 5q-29 -213 -52 -607q38 -119 138 -145q17 -5 34 -5q82 0 165 102q5 79 5 165q0 179 -20 391l238 19q4 -561 28 -893l-185 -38l-14 195q-94 -138 -204 -154q-15 -3 -30 -3q-92 0 -165 93q5 -178 5 -453z" />
<glyph unicode="&#xb6;" horiz-adv-x="1179" d="M65 1057q0 151 111 261q103 101 553 101q144 0 401 -19q-21 -660 -26 -1443l-204 -10q10 580 15 1253l-171 4q-19 -791 -19 -1147l-233 -14q29 340 33 662q-401 32 -448 250q-12 53 -12 102z" />
<glyph unicode="&#xb7;" horiz-adv-x="477" d="M68 628q0 58 59 97q49 33 100 33q30 0 60 -11q68 -25 68 -101q0 -16 -3 -35q-18 -106 -135 -106l-1 -1q-116 0 -141 85q-7 20 -7 39z" />
<glyph unicode="&#xb8;" horiz-adv-x="482" d="M65 -278q36 -2 67 -2q154 0 175 54q7 18 7 32q0 37 -47 48q-14 3 -27 3q-52 0 -105 -44l-27 78q73 67 161 67q14 0 29 -2q105 -12 124 -109q4 -21 4 -41q0 -73 -55 -132q-56 -60 -205 -60q-37 0 -81 4z" />
<glyph unicode="&#xbb;" horiz-adv-x="1338" d="M80 281q201 228 376 482q-133 218 -361 484l187 98q228 -304 478 -578q-257 -295 -498 -579zM578 281q201 228 376 482q-133 218 -361 484l187 98q228 -304 478 -578q-257 -295 -498 -579z" />
<glyph unicode="&#xbf;" horiz-adv-x="873" d="M52 20v3q2 193 154 366q147 167 147 308v9l190 14q-14 -219 -147 -393t-145 -267v-12q0 -76 127 -76h12q150 4 371 188l62 -261q-232 -148 -422 -148q-61 0 -118 15q-231 63 -231 254zM253 977q0 10 1 21q11 120 169 135q20 2 37 2q125 0 150 -96q8 -26 8 -50 q0 -73 -69 -115q-59 -36 -125 -36q-36 0 -74 10q-97 28 -97 129z" />
<glyph unicode="&#xc0;" horiz-adv-x="955" d="M-6 57q153 518 343 1290l326 17q95 -447 285 -1273l-304 -102l-71 633l-253 -26l-86 -624zM258 1716l135 125l185 -268l-135 -82zM378 799l232 17l-40 305l-126 7z" />
<glyph unicode="&#xc1;" horiz-adv-x="955" d="M-6 57q153 518 343 1290l326 17q95 -447 285 -1273l-304 -102l-71 633l-253 -26l-86 -624zM364 1573l185 268l135 -125l-185 -225zM378 799l232 17l-40 305l-126 7z" />
<glyph unicode="&#xc2;" horiz-adv-x="955" d="M-6 57q153 518 343 1290l326 17q95 -447 285 -1273l-304 -102l-71 633l-253 -26l-86 -624zM211 1525q47 99 177 312h160q66 -138 184 -309l-123 -33l-147 190l-127 -180zM378 799l232 17l-40 305l-126 7z" />
<glyph unicode="&#xc3;" horiz-adv-x="955" d="M-6 57q153 518 343 1290l326 17q95 -447 285 -1273l-304 -102l-71 633l-253 -26l-86 -624zM132 1479q8 231 143 248q27 3 52 3q96 0 152 -52q70 -66 139 -66t80 117l112 -2q-3 -250 -152 -262q-24 -2 -46 -2q-113 0 -162 53q-59 63 -125 64h-1q-65 0 -71 -104zM378 799 l232 17l-40 305l-126 7z" />
<glyph unicode="&#xc4;" horiz-adv-x="955" d="M-6 57q153 518 343 1290l326 17q95 -447 285 -1273l-304 -102l-71 633l-253 -26l-86 -624zM137 1572q0 7 1 15q7 81 115 102q22 4 41 4q71 0 87 -64q5 -20 5 -38q0 -54 -47 -86q-41 -28 -88 -28q-23 0 -47 7q-67 19 -67 88zM378 799l232 17l-40 305l-126 7zM552 1576 q0 17 6 37q23 79 133 79t114 -84v-9q0 -77 -64 -104q-32 -13 -64 -13q-37 0 -73 18q-52 25 -52 76z" />
<glyph unicode="&#xc5;" horiz-adv-x="955" d="M-6 57q153 518 343 1290l326 17q95 -447 285 -1273l-304 -102l-71 633l-253 -26l-86 -624zM289 1606q0 27 6 59q26 151 220 154h7q187 0 193 -154v-13q0 -146 -118 -194q-61 -25 -116 -25q-58 0 -110 27q-82 42 -82 146zM378 799l232 17l-40 305l-126 7zM419 1627 q0 -68 85 -70q3 -1 5 -1q84 0 87 75v4q0 72 -85 72q-88 0 -92 -74v-6z" />
<glyph unicode="&#xc6;" horiz-adv-x="1369" d="M-12 47q143 532 356 1301q498 9 959 41l-5 -259q-155 12 -296 12q-75 0 -145 -3l4 -332l417 24l-14 -213l-347 -28l4 -327l382 14l5 -234q-238 -5 -689 -29l15 598l-309 -19l-104 -626zM378 799l262 17l20 315l-216 -13z" />
<glyph unicode="&#xc7;" horiz-adv-x="779" d="M64 566q0 29 2 61q15 332 199 527q134 143 305 143q62 0 128 -19l10 -275q-56 16 -106 16q-100 0 -182 -60q-123 -91 -157 -310q-9 -57 -9 -105q0 -137 73 -199q52 -45 162 -45q97 0 240 35l-20 -270q-100 -15 -183 -15q-219 0 -327 103q-135 128 -135 413zM277 -278 q36 -2 67 -2q154 0 175 54q7 18 7 32q0 37 -47 48q-14 3 -27 3q-52 0 -105 -44l-27 78q73 67 161 67q14 0 29 -2q105 -12 124 -109q4 -21 4 -41q0 -73 -55 -132q-56 -60 -205 -60q-37 0 -81 4z" />
<glyph unicode="&#xc8;" horiz-adv-x="754" d="M50 73q37 586 50 1226q181 17 604 47l-9 -219q-55 1 -106 1q-202 0 -324 -16v-309l406 4l-9 -223h-343l4 -258l356 4l4 -283zM164 1716l135 125l185 -268l-135 -82z" />
<glyph unicode="&#xc9;" horiz-adv-x="754" d="M50 73q37 586 50 1226q181 17 604 47l-9 -219q-55 1 -106 1q-202 0 -324 -16v-309l406 4l-9 -223h-343l4 -258l356 4l4 -283zM270 1573l185 268l135 -125l-185 -225z" />
<glyph unicode="&#xca;" horiz-adv-x="754" d="M50 73q37 586 50 1226q181 17 604 47l-9 -219q-55 1 -106 1q-202 0 -324 -16v-309l406 4l-9 -223h-343l4 -258l356 4l4 -283zM117 1525q47 99 177 312h160q66 -138 184 -309l-123 -33l-147 190l-127 -180z" />
<glyph unicode="&#xcb;" horiz-adv-x="754" d="M44 1572q0 7 1 15q7 81 115 102q22 4 41 4q71 0 87 -64q5 -20 5 -38q0 -54 -47 -86q-41 -28 -88 -28q-23 0 -47 7q-67 19 -67 88zM50 73q37 586 50 1226q181 17 604 47l-9 -219q-55 1 -106 1q-202 0 -324 -16v-309l406 4l-9 -223h-343l4 -258l356 4l4 -283zM459 1576 q0 17 6 37q23 79 133 79t114 -84v-9q0 -77 -64 -104q-32 -13 -64 -13q-37 0 -73 18q-52 25 -52 76z" />
<glyph unicode="&#xcc;" horiz-adv-x="594" d="M91 1716l135 125l185 -268l-135 -82zM180 1351l249 21q-20 -692 -20 -1303l-224 -5q4 277 4 538q0 392 -9 749z" />
<glyph unicode="&#xcd;" horiz-adv-x="594" d="M180 1351l249 21q-20 -692 -20 -1303l-224 -5q4 277 4 538q0 392 -9 749zM198 1573l185 268l135 -125l-185 -225z" />
<glyph unicode="&#xce;" horiz-adv-x="594" d="M44 1525q47 99 177 312h160q66 -138 184 -309l-123 -33l-147 190l-127 -180zM180 1351l249 21q-20 -692 -20 -1303l-224 -5q4 277 4 538q0 392 -9 749z" />
<glyph unicode="&#xcf;" horiz-adv-x="594" d="M-29 1572q0 7 1 15q7 81 115 102q22 4 41 4q71 0 87 -64q5 -20 5 -38q0 -54 -47 -86q-41 -28 -88 -28q-23 0 -47 7q-67 19 -67 88zM180 1351l249 21q-20 -692 -20 -1303l-224 -5q4 277 4 538q0 392 -9 749zM386 1576q0 17 6 37q23 79 133 79t114 -84v-9q0 -77 -64 -104 q-32 -13 -64 -13q-37 0 -73 18q-52 25 -52 76z" />
<glyph unicode="&#xd0;" horiz-adv-x="1054" d="M39 738q79 3 178 7q-4 268 -13 597q92 10 176 10q198 0 350 -56q216 -81 267 -416q12 -78 12 -152q0 -242 -129 -435q-169 -252 -662 -252q3 128 3 287q0 121 -2 260q-83 2 -175 5zM431 277q209 4 324 164q80 111 80 259q0 64 -15 136q-50 236 -361 254q-9 -142 -16 -335 q96 5 204 11l-10 -189q-91 2 -200 5q-3 -141 -6 -305z" />
<glyph unicode="&#xd1;" horiz-adv-x="988" d="M50 38q36 615 36 1070q0 103 -2 198l276 14q193 -547 343 -856q15 556 15 929l290 19q-68 -740 -92 -1316l-242 -24q-184 455 -353 861q-39 -498 -39 -919zM190 1519q8 231 143 248q27 3 52 3q96 0 152 -52q70 -66 139 -66t80 117l112 -2q-3 -250 -152 -262 q-24 -2 -46 -2q-113 0 -162 53q-59 63 -125 64h-1q-65 0 -71 -104z" />
<glyph unicode="&#xd2;" horiz-adv-x="1025" d="M51 654q0 46 4 96q25 298 187 458q117 115 257 115q54 0 112 -17q206 -62 294 -286q56 -144 56 -294q0 -84 -17 -170q-50 -240 -199 -343q-140 -97 -287 -97q-10 0 -21 1q-158 7 -282 171q-104 137 -104 366zM289 708q0 -108 28 -172q40 -93 122 -138q45 -25 88 -25 q36 0 72 18q77 37 111 140q18 55 18 136q0 70 -13 159q-29 192 -140 252q-49 27 -92 27q-53 0 -95 -42q-77 -75 -94 -255q-5 -54 -5 -100zM293 1716l135 125l185 -268l-135 -82z" />
<glyph unicode="&#xd3;" horiz-adv-x="1025" d="M51 654q0 46 4 96q25 298 187 458q117 115 257 115q54 0 112 -17q206 -62 294 -286q56 -144 56 -294q0 -84 -17 -170q-50 -240 -199 -343q-140 -97 -287 -97q-10 0 -21 1q-158 7 -282 171q-104 137 -104 366zM289 708q0 -108 28 -172q40 -93 122 -138q45 -25 88 -25 q36 0 72 18q77 37 111 140q18 55 18 136q0 70 -13 159q-29 192 -140 252q-49 27 -92 27q-53 0 -95 -42q-77 -75 -94 -255q-5 -54 -5 -100zM399 1573l185 268l135 -125l-185 -225z" />
<glyph unicode="&#xd4;" horiz-adv-x="1025" d="M51 654q0 46 4 96q25 298 187 458q117 115 257 115q54 0 112 -17q206 -62 294 -286q56 -144 56 -294q0 -84 -17 -170q-50 -240 -199 -343q-140 -97 -287 -97q-10 0 -21 1q-158 7 -282 171q-104 137 -104 366zM246 1525q47 99 177 312h160q66 -138 184 -309l-123 -33 l-147 190l-127 -180zM289 708q0 -108 28 -172q40 -93 122 -138q45 -25 88 -25q36 0 72 18q77 37 111 140q18 55 18 136q0 70 -13 159q-29 192 -140 252q-49 27 -92 27q-53 0 -95 -42q-77 -75 -94 -255q-5 -54 -5 -100z" />
<glyph unicode="&#xd5;" horiz-adv-x="1025" d="M51 654q0 46 4 96q25 298 187 458q117 115 257 115q54 0 112 -17q206 -62 294 -286q56 -144 56 -294q0 -84 -17 -170q-50 -240 -199 -343q-140 -97 -287 -97q-10 0 -21 1q-158 7 -282 171q-104 137 -104 366zM167 1469q8 231 143 248q27 3 52 3q96 0 152 -52 q70 -66 139 -66t80 117l112 -2q-3 -250 -152 -262q-24 -2 -46 -2q-113 0 -162 53q-59 63 -125 64h-1q-65 0 -71 -104zM289 708q0 -108 28 -172q40 -93 122 -138q45 -25 88 -25q36 0 72 18q77 37 111 140q18 55 18 136q0 70 -13 159q-29 192 -140 252q-49 27 -92 27 q-53 0 -95 -42q-77 -75 -94 -255q-5 -54 -5 -100z" />
<glyph unicode="&#xd6;" horiz-adv-x="1025" d="M51 654q0 46 4 96q25 298 187 458q117 115 257 115q54 0 112 -17q206 -62 294 -286q56 -144 56 -294q0 -84 -17 -170q-50 -240 -199 -343q-140 -97 -287 -97q-10 0 -21 1q-158 7 -282 171q-104 137 -104 366zM172 1572q0 7 1 15q7 81 115 102q22 4 41 4q71 0 87 -64 q5 -20 5 -38q0 -54 -47 -86q-41 -28 -88 -28q-23 0 -47 7q-67 19 -67 88zM289 708q0 -108 28 -172q40 -93 122 -138q45 -25 88 -25q36 0 72 18q77 37 111 140q18 55 18 136q0 70 -13 159q-29 192 -140 252q-49 27 -92 27q-53 0 -95 -42q-77 -75 -94 -255q-5 -54 -5 -100z M587 1576q0 17 6 37q23 79 133 79t114 -84v-9q0 -77 -64 -104q-32 -13 -64 -13q-37 0 -73 18q-52 25 -52 76z" />
<glyph unicode="&#xd7;" horiz-adv-x="980" d="M45 1018l159 165l275 -285l280 291l156 -149q-147 -135 -282 -278l285 -260l-179 -176l-282 306l-267 -296l-142 127l272 285z" />
<glyph unicode="&#xd8;" horiz-adv-x="1025" d="M51 654q0 46 4 96q25 298 187 458q117 115 257 115q33 0 68 -7q31 126 64 256l204 -50q-47 -142 -91 -283q105 -76 161 -219q56 -144 56 -294q0 -84 -17 -170q-50 -240 -199 -343q-140 -97 -287 -97q-10 0 -21 1h-3q-34 -143 -65 -284l-175 59q38 138 76 282 q-61 42 -115 114q-104 137 -104 366zM289 708q0 -108 28 -172q14 -33 33 -60q80 303 162 626q-15 3 -29 3q-53 0 -95 -42q-77 -75 -94 -255q-5 -54 -5 -100zM498 375q15 -2 29 -2q36 0 72 18q77 37 111 140q18 55 18 136q0 70 -13 159q-15 95 -49 158q-91 -308 -168 -609z " />
<glyph unicode="&#xd9;" horiz-adv-x="904" d="M50 1347l256 5q-10 -444 -10 -683q0 -73 1 -127q4 -224 160 -224h7q165 23 175 227q3 72 3 183q0 197 -11 515l206 14q7 -191 7 -362q0 -246 -14 -449q-25 -345 -376 -378q-366 0 -382.5 376.5t-21.5 902.5zM234 1716l135 125l185 -268l-135 -82z" />
<glyph unicode="&#xda;" horiz-adv-x="904" d="M50 1347l256 5q-10 -444 -10 -683q0 -73 1 -127q4 -224 160 -224h7q165 23 175 227q3 72 3 183q0 197 -11 515l206 14q7 -191 7 -362q0 -246 -14 -449q-25 -345 -376 -378q-366 0 -382.5 376.5t-21.5 902.5zM340 1573l185 268l135 -125l-185 -225z" />
<glyph unicode="&#xdb;" horiz-adv-x="904" d="M50 1347l256 5q-10 -444 -10 -683q0 -73 1 -127q4 -224 160 -224h7q165 23 175 227q3 72 3 183q0 197 -11 515l206 14q7 -191 7 -362q0 -246 -14 -449q-25 -345 -376 -378q-366 0 -382.5 376.5t-21.5 902.5zM186 1525q47 99 177 312h160q66 -138 184 -309l-123 -33 l-147 190l-127 -180z" />
<glyph unicode="&#xdc;" horiz-adv-x="904" d="M50 1347l256 5q-10 -444 -10 -683q0 -73 1 -127q4 -224 160 -224h7q165 23 175 227q3 72 3 183q0 197 -11 515l206 14q7 -191 7 -362q0 -246 -14 -449q-25 -345 -376 -378q-366 0 -382.5 376.5t-21.5 902.5zM113 1572q0 7 1 15q7 81 115 102q22 4 41 4q71 0 87 -64 q5 -20 5 -38q0 -54 -47 -86q-41 -28 -88 -28q-23 0 -47 7q-67 19 -67 88zM528 1576q0 17 6 37q23 79 133 79t114 -84v-9q0 -77 -64 -104q-32 -13 -64 -13q-37 0 -73 18q-52 25 -52 76z" />
<glyph unicode="&#xdd;" horiz-adv-x="947" d="M-10 1256l252 108q99 -378 240 -640q159 323 272 640l203 -81q-385 -777 -534 -1251l-258 48q100 229 169 417q-144 339 -344 759zM367 1573l185 268l135 -125l-185 -225z" />
<glyph unicode="&#xde;" horiz-adv-x="900" d="M50 2q26 447 26 918q0 247 -7 500l215 -2l-7 -286q39 3 77 3q131 0 257 -40q162 -52 221 -198q21 -52 21 -106q0 -98 -70 -202q-108 -162 -499 -252l-7 -318zM238 899l1 -326q228 7 311 93q60 63 60 120q0 20 -7 40q-30 73 -119 87q-30 5 -67 5q-75 0 -179 -19z" />
<glyph unicode="&#xdf;" horiz-adv-x="1004" d="M74 583q0 229 11 352q20 237 151 363q115 111 279 111q21 0 44 -1q192 -17 289 -92q92 -73 92 -230v-14q-5 -169 -347 -317q270 -15 332 -173q26 -68 26 -139q0 -95 -48 -197q-84 -177 -481 -227l-14 223q152 4 250 61q81 46 81 134q0 18 -3 38q-20 114 -313 114h-10v223 q300 147 300 264q0 7 -1 14q-18 116 -183 116h-14q-178 -5 -209 -283t-31 -857h-192q-9 304 -9 517z" />
<glyph unicode="&#xe0;" horiz-adv-x="908" d="M59 313q0 7 1 14q9 144 127 232q101 74 346 74q42 0 88 -2q1 16 1 31q0 164 -92 184q-13 3 -28 3q-107 0 -343 -131l-81 191q280 121 433 121q20 0 38 -2q154 -18 232 -156q54 -97 54 -425q0 -139 -10 -321q-236 -59 -396 -59q-123 0 -201 36q-169 76 -169 210zM234 1323 l135 125l185 -268l-135 -82zM281 346q0 -37 32 -70q32 -34 123 -34q75 0 191 23l1 218h-27q-252 0 -298 -71q-22 -35 -22 -66z" />
<glyph unicode="&#xe1;" horiz-adv-x="908" d="M59 313q0 7 1 14q9 144 127 232q101 74 346 74q42 0 88 -2q1 16 1 31q0 164 -92 184q-13 3 -28 3q-107 0 -343 -131l-81 191q280 121 433 121q20 0 38 -2q154 -18 232 -156q54 -97 54 -425q0 -139 -10 -321q-236 -59 -396 -59q-123 0 -201 36q-169 76 -169 210zM281 346 q0 -37 32 -70q32 -34 123 -34q75 0 191 23l1 218h-27q-252 0 -298 -71q-22 -35 -22 -66zM340 1180l185 268l135 -125l-185 -225z" />
<glyph unicode="&#xe2;" horiz-adv-x="908" d="M59 313q0 7 1 14q9 144 127 232q101 74 346 74q42 0 88 -2q1 16 1 31q0 164 -92 184q-13 3 -28 3q-107 0 -343 -131l-81 191q280 121 433 121q20 0 38 -2q154 -18 232 -156q54 -97 54 -425q0 -139 -10 -321q-236 -59 -396 -59q-123 0 -201 36q-169 76 -169 210zM186 1132 q47 99 177 312h160q66 -138 184 -309l-123 -33l-147 190l-127 -180zM281 346q0 -37 32 -70q32 -34 123 -34q75 0 191 23l1 218h-27q-252 0 -298 -71q-22 -35 -22 -66z" />
<glyph unicode="&#xe3;" horiz-adv-x="908" d="M59 313q0 7 1 14q9 144 127 232q101 74 346 74q42 0 88 -2q1 16 1 31q0 164 -92 184q-13 3 -28 3q-107 0 -343 -131l-81 191q280 121 433 121q20 0 38 -2q154 -18 232 -156q54 -97 54 -425q0 -139 -10 -321q-236 -59 -396 -59q-123 0 -201 36q-169 76 -169 210zM108 1175 q8 231 143 248q27 3 52 3q96 0 152 -52q70 -66 139 -66t80 117l112 -2q-3 -250 -152 -262q-24 -2 -46 -2q-113 0 -162 53q-59 63 -125 64h-1q-65 0 -71 -104zM281 346q0 -37 32 -70q32 -34 123 -34q75 0 191 23l1 218h-27q-252 0 -298 -71q-22 -35 -22 -66z" />
<glyph unicode="&#xe4;" horiz-adv-x="908" d="M59 313q0 7 1 14q9 144 127 232q101 74 346 74q42 0 88 -2q1 16 1 31q0 164 -92 184q-13 3 -28 3q-107 0 -343 -131l-81 191q280 121 433 121q20 0 38 -2q154 -18 232 -156q54 -97 54 -425q0 -139 -10 -321q-236 -59 -396 -59q-123 0 -201 36q-169 76 -169 210zM113 1278 q0 7 1 15q7 81 115 102q22 4 41 4q71 0 87 -64q5 -20 5 -38q0 -54 -47 -86q-41 -28 -88 -28q-23 0 -47 7q-67 19 -67 88zM281 346q0 -37 32 -70q32 -34 123 -34q75 0 191 23l1 218h-27q-252 0 -298 -71q-22 -35 -22 -66zM528 1282q0 17 6 37q23 79 133 79t114 -84v-9 q0 -77 -64 -104q-32 -13 -64 -13q-37 0 -73 18q-52 25 -52 76z" />
<glyph unicode="&#xe5;" horiz-adv-x="908" d="M59 313q0 7 1 14q9 144 127 232q101 74 346 74q42 0 88 -2q1 16 1 31q0 164 -92 184q-13 3 -28 3q-107 0 -343 -131l-81 191q280 121 433 121q20 0 38 -2q154 -18 232 -156q54 -97 54 -425q0 -139 -10 -321q-236 -59 -396 -59q-123 0 -201 36q-169 76 -169 210zM211 1254 q0 27 6 59q26 151 220 154h7q187 0 193 -154v-13q0 -146 -118 -194q-61 -25 -116 -25q-58 0 -110 27q-82 42 -82 146zM281 346q0 -37 32 -70q32 -34 123 -34q75 0 191 23l1 218h-27q-252 0 -298 -71q-22 -35 -22 -66zM341 1275q0 -68 85 -70q3 -1 5 -1q84 0 87 75v4 q0 72 -85 72q-88 0 -92 -74v-6z" />
<glyph unicode="&#xe6;" horiz-adv-x="1497" d="M59 313q0 7 1 14q9 144 127 232q101 74 346 74q42 0 88 -2q1 16 1 31q0 164 -92 184q-13 3 -28 3q-107 0 -343 -131l-81 191q280 121 433 121q20 0 38 -2q154 -18 207 -156q16 -43 24 -130q49 133 156 213q93 71 202 71q76 0 160 -34q155 -64 155 -316q0 -80 -16 -180 l-518 -9q-11 -42 -11 -74q0 -65 44 -89q37 -20 174 -20q107 0 275 12l-37 -219q-69 -4 -130 -4q-329 0 -417 123q-20 27 -35 58q-3 -70 -7 -148q-208 -59 -355 -59q-114 0 -192 36q-169 76 -169 210zM281 346q0 -37 32 -70q32 -34 123 -34q75 0 191 23l1 218h-27 q-252 0 -298 -71q-22 -35 -22 -66zM927 656l318 -5v15q0 196 -109 196q-17 0 -37 -4q-151 -37 -172 -202z" />
<glyph unicode="&#xe7;" horiz-adv-x="761" d="M61 485q0 20 1 41q12 209 136 351q94 106 324 106q75 0 164 -11l33 -239q-145 28 -238 28q-90 0 -131 -26q-83 -55 -101 -195q-3 -24 -3 -45q0 -105 74 -149q47 -29 164 -29q104 0 262 22l-18 -239q-113 -10 -205 -10q-282 0 -364 97q-98 116 -98 298zM231 -228 q36 -2 67 -2q154 0 175 54q7 18 7 32q0 37 -47 48q-14 3 -27 3q-52 0 -105 -44l-27 78q73 67 161 67q14 0 29 -2q105 -12 124 -109q4 -21 4 -41q0 -73 -55 -132q-56 -60 -205 -60q-37 0 -81 4z" />
<glyph unicode="&#xe8;" horiz-adv-x="895" d="M75 477q0 46 8 97q32 211 216 331q108 71 223 71q80 0 164 -34q155 -64 155 -316q0 -80 -16 -180l-548 -9q-11 -25 -11 -46q0 -43 44 -67q37 -20 184 -20q114 0 295 12l-37 -219q-77 -4 -144 -4q-365 0 -453 123q-80 111 -80 261zM244 1323l135 125l185 -268l-135 -82z M315 606l318 -5v15q0 196 -109 196q-17 0 -37 -4q-151 -37 -172 -202z" />
<glyph unicode="&#xe9;" horiz-adv-x="895" d="M75 477q0 46 8 97q32 211 216 331q108 71 223 71q80 0 164 -34q155 -64 155 -316q0 -80 -16 -180l-548 -9q-11 -25 -11 -46q0 -43 44 -67q37 -20 184 -20q114 0 295 12l-37 -219q-77 -4 -144 -4q-365 0 -453 123q-80 111 -80 261zM315 606l318 -5v15q0 196 -109 196 q-17 0 -37 -4q-151 -37 -172 -202zM351 1180l185 268l135 -125l-185 -225z" />
<glyph unicode="&#xea;" horiz-adv-x="895" d="M75 477q0 46 8 97q32 211 216 331q108 71 223 71q80 0 164 -34q155 -64 155 -316q0 -80 -16 -180l-548 -9q-11 -25 -11 -46q0 -43 44 -67q37 -20 184 -20q114 0 295 12l-37 -219q-77 -4 -144 -4q-365 0 -453 123q-80 111 -80 261zM197 1132q47 99 177 312h160 q66 -138 184 -309l-123 -33l-147 190l-127 -180zM315 606l318 -5v15q0 196 -109 196q-17 0 -37 -4q-151 -37 -172 -202z" />
<glyph unicode="&#xeb;" horiz-adv-x="895" d="M75 477q0 46 8 97q32 211 216 331q108 71 223 71q80 0 164 -34q155 -64 155 -316q0 -80 -16 -180l-548 -9q-11 -25 -11 -46q0 -43 44 -67q37 -20 184 -20q114 0 295 12l-37 -219q-77 -4 -144 -4q-365 0 -453 123q-80 111 -80 261zM124 1179q0 7 1 15q7 81 115 102 q22 4 41 4q71 0 87 -64q5 -20 5 -38q0 -54 -47 -86q-41 -28 -88 -28q-23 0 -47 7q-67 19 -67 88zM315 606l318 -5v15q0 196 -109 196q-17 0 -37 -4q-151 -37 -172 -202zM539 1183q0 17 6 37q23 79 133 79t114 -84v-9q0 -77 -64 -104q-32 -13 -64 -13q-37 0 -73 18 q-52 25 -52 76z" />
<glyph unicode="&#xec;" horiz-adv-x="599" d="M76 1422l135 125l185 -268l-135 -82zM165 1021l249 21q-20 -562 -20 -1013l-224 -5q4 213 4 415q0 303 -9 582z" />
<glyph unicode="&#xed;" horiz-adv-x="599" d="M165 1021l249 21q-20 -562 -20 -1013l-224 -5q4 213 4 415q0 303 -9 582zM183 1279l185 268l135 -125l-185 -225z" />
<glyph unicode="&#xee;" horiz-adv-x="599" d="M30 1231q47 99 177 312h160q66 -138 184 -309l-123 -33l-147 190l-127 -180zM165 1021l249 21q-20 -562 -20 -1013l-224 -5q4 213 4 415q0 303 -9 582z" />
<glyph unicode="&#xef;" horiz-adv-x="599" d="M-44 1278q0 7 1 15q7 81 115 102q22 4 41 4q71 0 87 -64q5 -20 5 -38q0 -54 -47 -86q-41 -28 -88 -28q-23 0 -47 7q-67 19 -67 88zM165 1021l249 21q-20 -562 -20 -1013l-224 -5q4 213 4 415q0 303 -9 582zM371 1282q0 17 6 37q23 79 133 79t114 -84v-9q0 -77 -64 -104 q-32 -13 -64 -13q-37 0 -73 18q-52 25 -52 76z" />
<glyph unicode="&#xf0;" horiz-adv-x="1132" d="M101 478q0 102 55 215q105 217 524 217v50q0 57 -1 115q-96 2 -204 5l-5 145q91 3 207 8q-2 88 -5 176l241 -4q-7 -69 -12 -161q84 4 177 9l-10 -189q-80 2 -174 5q-10 -300 -10 -761q0 -118 1 -247q-114 -12 -211 -12q-141 0 -247 25q-179 42 -278 222q-48 86 -48 182z M298 465q0 -51 27 -101q49 -89 273 -89q42 0 91 3l-9 406h-24q-262 0 -324 -104q-34 -58 -34 -115z" />
<glyph unicode="&#xf1;" d="M50 947l168 23l-1 -193q107 146 228 167q22 4 44 4q97 0 192 -76q116 -93 132 -359.5t20 -540.5l-254 -9q9 209 16 468v29q0 232 -110 258q-21 5 -41 5q-90 0 -152 -106q-7 -106 -7 -247q0 -140 7 -314h-219q8 185 8 346q0 322 -31 545zM103 1096q8 231 143 248 q27 3 52 3q96 0 152 -52q70 -66 139 -66t80 117l112 -2q-3 -250 -152 -262q-24 -2 -46 -2q-113 0 -162 53q-59 63 -125 64h-1q-65 0 -71 -104z" />
<glyph unicode="&#xf2;" horiz-adv-x="997" d="M86 478q0 157 81 308q116 218 414 223h7q290 0 325 -335q5 -59 5 -112q0 -254 -136 -379q-132 -121 -307 -121q-44 0 -90 8q-232 37 -283 268q-16 70 -16 140zM288 441q0 -92 56 -138q51 -44 127 -44q48 0 106 17q139 41 139 233q0 15 -1 30q-10 200 -162 200 q-14 0 -28 -1q-180 -20 -222 -192q-15 -59 -15 -105zM289 1323l135 125l185 -268l-135 -82z" />
<glyph unicode="&#xf3;" horiz-adv-x="997" d="M86 478q0 157 81 308q116 218 414 223h7q290 0 325 -335q5 -59 5 -112q0 -254 -136 -379q-132 -121 -307 -121q-44 0 -90 8q-232 37 -283 268q-16 70 -16 140zM288 441q0 -92 56 -138q51 -44 127 -44q48 0 106 17q139 41 139 233q0 15 -1 30q-10 200 -162 200 q-14 0 -28 -1q-180 -20 -222 -192q-15 -59 -15 -105zM395 1180l185 268l135 -125l-185 -225z" />
<glyph unicode="&#xf4;" horiz-adv-x="997" d="M86 478q0 157 81 308q116 218 414 223h7q290 0 325 -335q5 -59 5 -112q0 -254 -136 -379q-132 -121 -307 -121q-44 0 -90 8q-232 37 -283 268q-16 70 -16 140zM242 1132q47 99 177 312h160q66 -138 184 -309l-123 -33l-147 190l-127 -180zM288 441q0 -92 56 -138 q51 -44 127 -44q48 0 106 17q139 41 139 233q0 15 -1 30q-10 200 -162 200q-14 0 -28 -1q-180 -20 -222 -192q-15 -59 -15 -105z" />
<glyph unicode="&#xf5;" horiz-adv-x="997" d="M86 478q0 157 81 308q116 218 414 223h7q290 0 325 -335q5 -59 5 -112q0 -254 -136 -379q-132 -121 -307 -121q-44 0 -90 8q-232 37 -283 268q-16 70 -16 140zM163 1175q8 231 143 248q27 3 52 3q96 0 152 -52q70 -66 139 -66t80 117l112 -2q-3 -250 -152 -262 q-24 -2 -46 -2q-113 0 -162 53q-59 63 -125 64h-1q-65 0 -71 -104zM288 441q0 -92 56 -138q51 -44 127 -44q48 0 106 17q139 41 139 233q0 15 -1 30q-10 200 -162 200q-14 0 -28 -1q-180 -20 -222 -192q-15 -59 -15 -105z" />
<glyph unicode="&#xf6;" horiz-adv-x="997" d="M86 478q0 157 81 308q116 218 414 223h7q290 0 325 -335q5 -59 5 -112q0 -254 -136 -379q-132 -121 -307 -121q-44 0 -90 8q-232 37 -283 268q-16 70 -16 140zM168 1278q0 7 1 15q7 81 115 102q22 4 41 4q71 0 87 -64q5 -20 5 -38q0 -54 -47 -86q-41 -28 -88 -28 q-23 0 -47 7q-67 19 -67 88zM288 441q0 -92 56 -138q51 -44 127 -44q48 0 106 17q139 41 139 233q0 15 -1 30q-10 200 -162 200q-14 0 -28 -1q-180 -20 -222 -192q-15 -59 -15 -105zM583 1282q0 17 6 37q23 79 133 79t114 -84v-9q0 -77 -64 -104q-32 -13 -64 -13 q-37 0 -73 18q-52 25 -52 76z" />
<glyph unicode="&#xf7;" horiz-adv-x="904" d="M50 845h23q233 0 785 18l-10 -239q-109 2 -213 2q-312 0 -580 -16zM272 316q0 68 69 114q58 39 118 39q35 0 71 -13q80 -30 80 -119q0 -19 -4 -41q-21 -125 -159 -125l-1 -1q-137 0 -166 100q-8 24 -8 46zM279 1118q0 46 37 92q53 65 143 65q22 0 46 -3q106 -17 106 -111 q0 -14 -3 -30q-19 -122 -138 -144q-25 -5 -47 -5q-83 0 -122 65q-22 36 -22 71z" />
<glyph unicode="&#xf8;" horiz-adv-x="997" d="M86 478q0 157 81 308q107 201 370 221q46 184 94 375l204 -50q-58 -175 -111 -347q163 -65 189 -311q5 -59 5 -112q0 -254 -136 -379q-132 -121 -307 -121h-9q-52 -211 -97 -419l-175 59q52 191 105 390q-156 61 -197 246q-16 70 -16 140zM288 441q0 -92 56 -138 q4 -4 9 -8q55 211 112 431q-128 -39 -162 -180q-15 -59 -15 -105zM517 262q29 5 60 14q139 41 139 233q0 15 -1 30q-7 129 -73 175q-66 -228 -125 -452z" />
<glyph unicode="&#xf9;" d="M50 961l254 9q-9 -309 -16 -518v-26q0 -184 96 -205q16 -4 33 -4q87 0 174 99q13 122 13 262t-13 299h219q-3 -142 -3 -272q0 -358 26 -619l-168 -23l-19 183q-134 -140 -251 -159q-20 -3 -39 -3q-94 0 -174 77q-96 93 -112 309.5t-20 590.5zM228 1323l135 125l185 -268 l-135 -82z" />
<glyph unicode="&#xfa;" d="M50 961l254 9q-9 -309 -16 -518v-26q0 -184 96 -205q16 -4 33 -4q87 0 174 99q13 122 13 262t-13 299h219q-3 -142 -3 -272q0 -358 26 -619l-168 -23l-19 183q-134 -140 -251 -159q-20 -3 -39 -3q-94 0 -174 77q-96 93 -112 309.5t-20 590.5zM335 1180l185 268l135 -125 l-185 -225z" />
<glyph unicode="&#xfb;" d="M50 961l254 9q-9 -309 -16 -518v-26q0 -184 96 -205q16 -4 33 -4q87 0 174 99q13 122 13 262t-13 299h219q-3 -142 -3 -272q0 -358 26 -619l-168 -23l-19 183q-134 -140 -251 -159q-20 -3 -39 -3q-94 0 -174 77q-96 93 -112 309.5t-20 590.5zM181 1132q47 99 177 312h160 q66 -138 184 -309l-123 -33l-147 190l-127 -180z" />
<glyph unicode="&#xfc;" d="M50 961l254 9q-9 -309 -16 -518v-26q0 -184 96 -205q16 -4 33 -4q87 0 174 99q13 122 13 262t-13 299h219q-3 -142 -3 -272q0 -358 26 -619l-168 -23l-19 183q-134 -140 -251 -159q-20 -3 -39 -3q-94 0 -174 77q-96 93 -112 309.5t-20 590.5zM107 1278q0 7 1 15 q7 81 115 102q22 4 41 4q71 0 87 -64q5 -20 5 -38q0 -54 -47 -86q-41 -28 -88 -28q-23 0 -47 7q-67 19 -67 88zM522 1282q0 17 6 37q23 79 133 79t114 -84v-9q0 -77 -64 -104q-32 -13 -64 -13q-37 0 -73 18q-52 25 -52 76z" />
<glyph unicode="&#xfd;" horiz-adv-x="921" d="M50 1025l236 10q-13 -252 -13 -397q0 -105 7 -154q16 -120 95 -131q7 -2 16 -2q80 0 243 94q-4 376 -18 566l255 19q-33 -650 -33 -970t-230 -361q-45 -9 -91 -9q-190 0 -398 139l65 238q198 -140 323 -140q11 0 22 1q109 12 109 236q0 42 -4 91q-169 -113 -289 -113 q-38 0 -71 12q-138 46 -181 230t-43 641zM354 1279l185 268l135 -125l-185 -225z" />
<glyph unicode="&#xfe;" horiz-adv-x="882" d="M50 -269q20 671 23 1671l231 -8l-10 -388q57 6 110 6q176 0 301 -69q132 -74 132 -276q0 -47 -7 -99q-37 -285 -540 -350q-1 -69 -1 -135q0 -184 10 -342zM250 434q20 -1 39 -1q320 0 320 185q0 7 -1 15q-11 172 -235 172q-50 0 -112 -9z" />
<glyph unicode="&#xff;" horiz-adv-x="921" d="M50 1025l236 10q-13 -252 -13 -397q0 -105 7 -154q16 -120 95 -131q7 -2 16 -2q80 0 243 94q-4 376 -18 566l255 19q-33 -650 -33 -970t-230 -361q-45 -9 -91 -9q-190 0 -398 139l65 238q198 -140 323 -140q11 0 22 1q109 12 109 236q0 42 -4 91q-169 -113 -289 -113 q-38 0 -71 12q-138 46 -181 230t-43 641zM126 1278q0 7 1 15q7 81 115 102q22 4 41 4q71 0 87 -64q5 -20 5 -38q0 -54 -47 -86q-41 -28 -88 -28q-23 0 -47 7q-67 19 -67 88zM541 1282q0 17 6 37q23 79 133 79t114 -84v-9q0 -77 -64 -104q-32 -13 -64 -13q-37 0 -73 18 q-52 25 -52 76z" />
<glyph unicode="&#x152;" horiz-adv-x="1464" d="M51 654q0 46 4 96q25 298 187 458q117 115 257 115q54 0 112 -17q113 -34 190 -118q2 55 3 111q181 17 604 47l-9 -219q-55 1 -106 1q-202 0 -324 -16v-309l406 4l-9 -223h-343l4 -258l356 4l4 -283l-633 26q5 76 9 153q-9 -7 -18 -13q-140 -97 -287 -97q-10 0 -21 1 q-158 7 -282 171q-104 137 -104 366zM289 708q0 -108 28 -172q40 -93 122 -138q45 -25 88 -25q36 0 72 18q77 37 111 140q18 55 18 136q0 70 -13 159q-29 192 -140 252l-92 27q-53 0 -95 -42q-77 -75 -94 -255q-5 -54 -5 -100z" />
<glyph unicode="&#x153;" horiz-adv-x="1585" d="M86 478q0 157 81 308q116 218 414 223h7q217 0 277 -235q48 75 124 131q108 71 223 71q80 0 164 -34q155 -64 155 -316q0 -80 -16 -180l-548 -9q-11 -25 -11 -46q0 -43 44 -67q37 -20 184 -20q114 0 295 12l-37 -219q-77 -4 -144 -4q-335 0 -433 123q-22 30 -38 63 q-30 -55 -75 -96q-122 -121 -277 -121q-44 0 -90 8q-232 37 -283 268q-16 70 -16 140zM288 441q0 -92 56 -138q51 -44 127 -44q48 0 106 17q139 41 139 233q0 15 -1 30q-10 200 -162 200q-14 0 -28 -1q-180 -20 -222 -192q-15 -59 -15 -105zM1005 606l318 -5v15 q0 196 -109 196q-17 0 -37 -4q-151 -37 -172 -202z" />
<glyph unicode="&#x178;" horiz-adv-x="947" d="M-10 1256l252 108q99 -378 240 -640q159 323 272 640l203 -81q-385 -777 -534 -1251l-258 48q100 229 169 417q-144 339 -344 759zM139 1572q0 7 1 15q7 81 115 102q22 4 41 4q71 0 87 -64q5 -20 5 -38q0 -54 -47 -86q-41 -28 -88 -28q-23 0 -47 7q-67 19 -67 88z M554 1576q0 17 6 37q23 79 133 79t114 -84v-9q0 -77 -64 -104q-32 -13 -64 -13q-37 0 -73 18q-52 25 -52 76z" />
<glyph unicode="&#x2c6;" horiz-adv-x="600" d="M44 1231q47 99 177 312h160q66 -138 184 -309l-123 -33l-147 190l-127 -180z" />
<glyph unicode="&#x2dc;" horiz-adv-x="778" d="M50 1175q8 231 143 248q27 3 52 3q96 0 152 -52q70 -66 139 -66t80 117l112 -2q-3 -250 -152 -262q-24 -2 -46 -2q-113 0 -162 53q-59 63 -125 64h-1q-65 0 -71 -104z" />
<glyph unicode="&#x2000;" horiz-adv-x="920" />
<glyph unicode="&#x2001;" horiz-adv-x="1841" />
<glyph unicode="&#x2002;" horiz-adv-x="920" />
<glyph unicode="&#x2003;" horiz-adv-x="1841" />
<glyph unicode="&#x2004;" horiz-adv-x="613" />
<glyph unicode="&#x2005;" horiz-adv-x="460" />
<glyph unicode="&#x2006;" horiz-adv-x="306" />
<glyph unicode="&#x2007;" horiz-adv-x="306" />
<glyph unicode="&#x2008;" horiz-adv-x="230" />
<glyph unicode="&#x2009;" horiz-adv-x="368" />
<glyph unicode="&#x200a;" horiz-adv-x="102" />
<glyph unicode="&#x2010;" horiz-adv-x="708" d="M50 835q227 9 608 28l-10 -239q-236 7 -593 16z" />
<glyph unicode="&#x2011;" horiz-adv-x="708" d="M50 835q227 9 608 28l-10 -239q-236 7 -593 16z" />
<glyph unicode="&#x2012;" horiz-adv-x="708" d="M50 835q227 9 608 28l-10 -239q-236 7 -593 16z" />
<glyph unicode="&#x2013;" horiz-adv-x="708" d="M50 835q227 9 608 28l-10 -239q-236 7 -593 16z" />
<glyph unicode="&#x2014;" horiz-adv-x="899" d="M50 855q213 -6 436 -6q183 0 372 4l-10 -219q-316 -3 -793 -14z" />
<glyph unicode="&#x2018;" horiz-adv-x="376" d="M48 1132q0 66 45 138q63 99 222 143l27 -102q-83 -3 -136 -76q102 -11 128 -82q9 -23 9 -44q0 -44 -39 -82q-45 -43 -109 -43q-16 0 -33 2q-85 14 -108 99q-6 23 -6 47z" />
<glyph unicode="&#x2019;" horiz-adv-x="376" d="M48 1288q0 44 39 82q45 43 109 43q16 0 33 -2q85 -14 108 -99q6 -23 6 -47q0 -66 -45 -138q-63 -99 -222 -143l-27 102q83 3 136 76q-102 11 -128 82q-9 23 -9 44z" />
<glyph unicode="&#x201a;" horiz-adv-x="430" d="M68 178q0 44 39 82q45 43 109 43q16 0 33 -2q85 -14 108 -99q6 -23 6 -47q0 -66 -45 -138q-63 -99 -222 -143l-27 92q83 23 136 86q-102 11 -128 82q-9 23 -9 44z" />
<glyph unicode="&#x201c;" horiz-adv-x="742" d="M68 1143q0 49 22 106q43 110 191 183l40 -95q-77 -28 -114 -100q11 1 22 1q85 0 120 -58q18 -29 18 -59q0 -35 -24 -70q-45 -64 -132 -67h-5q-82 0 -120 77q-18 38 -18 82zM401 1174q0 66 45 138q63 99 222 143l27 -102q-83 -3 -136 -76q102 -11 128 -82q9 -23 9 -44 q0 -44 -39 -82q-45 -43 -109 -43q-16 0 -33 2q-85 14 -108 99q-6 23 -6 47z" />
<glyph unicode="&#x201d;" horiz-adv-x="742" d="M68 1288q0 44 39 82q45 43 109 43q16 0 33 -2q85 -14 108 -99q6 -23 6 -47q0 -66 -45 -138q-63 -99 -222 -143l-27 102q83 3 136 76q-102 11 -128 82q-9 23 -9 44zM397 1318q0 35 24 70q45 64 132 67h5q82 0 120 -77q18 -38 18 -82q0 -49 -22 -106q-43 -110 -191 -183 l-40 95q77 28 114 100q-11 -1 -22 -1q-85 0 -120 58q-18 29 -18 59z" />
<glyph unicode="&#x201e;" horiz-adv-x="742" d="M68 110q0 44 39 82q45 43 109 43q16 0 33 -2q85 -14 108 -99q6 -23 6 -47q0 -66 -45 -138q-63 -99 -222 -143l-27 102q83 3 136 76q-102 11 -128 82q-9 23 -9 44zM397 140q0 35 24 70q45 64 132 67h5q82 0 120 -77q18 -38 18 -82q0 -49 -22 -106q-43 -110 -191 -183 l-40 95q77 28 114 100q-11 -1 -22 -1q-85 0 -120 58q-18 29 -18 59z" />
<glyph unicode="&#x2022;" horiz-adv-x="558" d="M79 698q0 85 86 142q71 48 146 48q43 0 88 -16q99 -37 99 -148q0 -23 -5 -50q-26 -155 -197 -155l-1 -2q-170 0 -206 124q-10 30 -10 57z" />
<glyph unicode="&#x2026;" horiz-adv-x="1477" d="M72 186q0 68 69 114q58 39 118 39q35 0 71 -13q80 -30 80 -119q0 -19 -4 -41q-21 -125 -159 -125l-1 -1q-137 0 -166 100q-8 24 -8 46zM572 172q0 19 4 41q21 125 159 125l1 1q137 0 166 -100q8 -24 8 -46q0 -68 -69 -114q-58 -39 -118 -39q-35 0 -71 13q-80 30 -80 119z M1072 186q0 68 69 114q58 39 118 39q35 0 71 -13q80 -30 80 -119q0 -19 -4 -41q-21 -125 -159 -125l-1 -1q-137 0 -166 100q-8 24 -8 46z" />
<glyph unicode="&#x202f;" horiz-adv-x="368" />
<glyph unicode="&#x2039;" horiz-adv-x="756" d="M52 766q257 295 498 579l182 -93q-201 -228 -376 -482q133 -218 361 -484l-187 -98q-238 254 -478 578z" />
<glyph unicode="&#x203a;" horiz-adv-x="756" d="M52 281q201 228 376 482q-133 218 -361 484l187 98q228 -304 478 -578q-257 -295 -498 -579z" />
<glyph unicode="&#x205f;" horiz-adv-x="460" />
<glyph unicode="&#x20ac;" horiz-adv-x="985" d="M34 585q56 0 130 -1q0 32 2 67q2 38 5 74q-65 1 -137 1l10 159q77 -2 155 -4q54 217 196 365q154 161 350 161q72 0 147 -21l12 -271q-64 18 -122 18q-115 0 -209 -67q-97 -62 -149 -190q154 -3 313 -7l5 -145q-134 0 -361 1q-5 -24 -8 -49q-9 -49 -11 -93h380l-10 -159 q-176 3 -358 7q19 -92 72 -148q80 -51 206 -51q112 0 276 40l-23 -255q-115 -17 -210 -17q-252 0 -376 116q-118 110 -146 320l-134 4z" />
<glyph unicode="&#x2122;" horiz-adv-x="1630" d="M97 1248v190h617l4 -190l-232 -5l5 -579l-199 -9v593h-195zM799 1379l248 12l123 -503l109 512l271 -19q-11 -493 -11 -816l-174 -14q-5 246 -5 602l-95 -427l-190 -14l-109 427l-5 -569l-157 -5q2 112 2 240q0 256 -7 574z" />
<glyph unicode="&#x25fc;" horiz-adv-x="1135" d="M0 0v1135h1135v-1135h-1135z" />
</font>
</defs>
</svg>
